<?xml version="1.0" standalone="no"?>
<!DOCTYPE svg PUBLIC "-//W3C//DTD SVG 20010904//EN"
 "http://www.w3.org/TR/2001/REC-SVG-20010904/DTD/svg10.dtd">
<svg version="1.0" xmlns="http://www.w3.org/2000/svg"
 width="180.000000pt" height="180.000000pt" viewBox="0 0 180.000000 180.000000"
 preserveAspectRatio="xMidYMid meet">

<g transform="translate(0.000000,180.000000) scale(0.100000,-0.100000)"
fill="#000000" stroke="none">
<path d="M0 900 l0 -900 900 0 900 0 0 900 0 900 -900 0 -900 0 0 -900z m735
447 c4 -35 5 -74 3 -88 -3 -21 1 -24 30 -27 l32 -3 0 90 c0 84 1 91 20 91 18
0 20 -7 20 -60 l0 -60 30 0 30 0 0 60 0 60 30 0 30 0 0 -60 0 -60 140 0 140 0
2 -47 c1 -27 3 -77 4 -113 2 -56 4 -65 20 -65 17 0 19 -10 22 -82 l3 -83 29 0
30 0 0 79 0 78 50 7 c28 4 55 4 60 1 6 -4 10 -67 10 -146 l0 -139 -30 0 c-23
0 -30 -4 -30 -20 0 -18 -7 -20 -60 -20 l-60 0 0 -115 0 -115 -25 0 -25 0 0
-109 0 -110 -27 -3 c-22 -2 -29 -9 -31 -30 l-3 -28 -110 0 -109 0 0 -30 0 -30
-169 0 -170 0 -3 28 c-2 19 -9 28 -25 30 -18 3 -23 10 -23 33 0 26 -3 29 -30
29 -29 0 -30 1 -30 50 0 49 -1 50 -30 50 l-30 0 0 60 0 60 -30 0 -30 0 0 225
0 225 30 0 c23 0 30 4 30 20 0 16 -7 20 -30 20 l-31 0 3 93 c3 91 3 92 28 92
18 0 26 6 28 23 3 20 9 22 63 22 59 0 59 0 59 30 0 25 4 30 25 30 21 0 25 5
25 30 0 27 3 30 30 30 27 0 30 3 30 30 0 25 4 30 24 30 23 0 25 -5 31 -63z"/>
<path d="M450 1036 c0 -25 1 -25 110 -28 l110 -3 0 28 0 27 -110 0 c-110 0
-110 0 -110 -24z"/>
<path d="M902 1035 c2 -14 6 -25 11 -25 4 0 52 0 107 0 l100 0 0 25 0 25 -111
0 -110 0 3 -25z"/>
<path d="M1130 980 c0 -15 7 -20 25 -20 18 0 25 5 25 20 0 15 -7 20 -25 20
-18 0 -25 -5 -25 -20z"/>
<path d="M450 930 c0 -27 3 -30 30 -30 27 0 30 3 30 30 0 27 -3 30 -30 30 -27
0 -30 -3 -30 -30z"/>
<path d="M1070 930 c0 -25 4 -30 23 -30 31 0 35 5 29 35 -3 18 -11 25 -28 25
-20 0 -24 -5 -24 -30z"/>
<path d="M680 585 l0 -25 109 0 109 0 0 25 0 25 -109 0 -109 0 0 -25z"/>
<path d="M620 531 c0 -13 7 -18 25 -18 18 0 25 5 25 18 0 14 -7 19 -25 19 -18
0 -25 -5 -25 -19z"/>
<path d="M902 533 c2 -12 12 -18 28 -18 16 0 26 6 28 18 3 13 -3 17 -28 17
-25 0 -31 -4 -28 -17z"/>
<path d="M680 480 l0 -25 107 1 c106 2 108 2 108 25 0 23 -2 23 -108 24 l-107
0 0 -25z"/>
</g>
</svg>
